<mxfile host="Electron" modified="2024-01-20T01:13:00.505Z" agent="Mozilla/5.0 (Macintosh; Intel Mac OS X 10_15_7) AppleWebKit/537.36 (KHTML, like Gecko) draw.io/22.1.18 Chrome/120.0.6099.199 Electron/28.1.2 Safari/537.36" etag="SOeeMsKJBQ62oEYbSoB9" version="22.1.18" type="device">
  <diagram name="第 1 页" id="8GrDb387zfK1cjqCyvNQ">
    <mxGraphModel dx="852" dy="548" grid="0" gridSize="10" guides="1" tooltips="1" connect="1" arrows="1" fold="1" page="1" pageScale="1" pageWidth="1169" pageHeight="1654" math="0" shadow="0">
      <root>
        <mxCell id="0" />
        <mxCell id="1" parent="0" />
        <mxCell id="yd2-lxux4B4j4kg-vaQn-1" value="" style="rounded=0;whiteSpace=wrap;html=1;strokeColor=none;fillColor=none;" parent="1" vertex="1">
          <mxGeometry x="168" y="196" width="503" height="239" as="geometry" />
        </mxCell>
        <mxCell id="qn-sbQdbIVTzuq3vQn2q-1" value="&lt;font style=&quot;font-size: 18px;&quot; face=&quot;Times New Roman&quot;&gt;&lt;b&gt;A&lt;/b&gt;&lt;/font&gt;" style="whiteSpace=wrap;html=1;aspect=fixed;fillColor=#FFB703;" parent="1" vertex="1">
          <mxGeometry x="228" y="219" width="38" height="38" as="geometry" />
        </mxCell>
        <mxCell id="qn-sbQdbIVTzuq3vQn2q-5" value="&lt;font face=&quot;Times New Roman&quot;&gt;&lt;span style=&quot;font-size: 18px;&quot;&gt;&lt;b&gt;B&lt;/b&gt;&lt;/span&gt;&lt;/font&gt;" style="whiteSpace=wrap;html=1;aspect=fixed;fillColor=#90C9E6;" parent="1" vertex="1">
          <mxGeometry x="228" y="271" width="38" height="38" as="geometry" />
        </mxCell>
        <mxCell id="qn-sbQdbIVTzuq3vQn2q-9" value="&lt;font face=&quot;Times New Roman&quot;&gt;&lt;span style=&quot;font-size: 18px;&quot;&gt;&lt;b&gt;C&lt;/b&gt;&lt;/span&gt;&lt;/font&gt;" style="whiteSpace=wrap;html=1;aspect=fixed;fillColor=#FB8402;" parent="1" vertex="1">
          <mxGeometry x="228" y="321" width="38" height="38" as="geometry" />
        </mxCell>
        <mxCell id="qn-sbQdbIVTzuq3vQn2q-13" value="&lt;font face=&quot;Times New Roman&quot;&gt;&lt;span style=&quot;font-size: 18px;&quot;&gt;&lt;b&gt;D&lt;/b&gt;&lt;/span&gt;&lt;/font&gt;" style="whiteSpace=wrap;html=1;aspect=fixed;fillColor=#219EBC;" parent="1" vertex="1">
          <mxGeometry x="228" y="371" width="38" height="38" as="geometry" />
        </mxCell>
        <mxCell id="qn-sbQdbIVTzuq3vQn2q-17" value="&lt;font style=&quot;font-size: 18px;&quot; face=&quot;Times New Roman&quot;&gt;&lt;b&gt;P0&lt;/b&gt;&lt;/font&gt;" style="text;html=1;strokeColor=none;fillColor=none;align=center;verticalAlign=middle;whiteSpace=wrap;rounded=0;fontColor=#000000;" parent="1" vertex="1">
          <mxGeometry x="159" y="223" width="60" height="30" as="geometry" />
        </mxCell>
        <mxCell id="qn-sbQdbIVTzuq3vQn2q-18" value="&lt;font style=&quot;font-size: 18px;&quot; face=&quot;Times New Roman&quot;&gt;&lt;b&gt;P1&lt;/b&gt;&lt;/font&gt;" style="text;html=1;strokeColor=none;fillColor=none;align=center;verticalAlign=middle;whiteSpace=wrap;rounded=0;fontColor=#000000;" parent="1" vertex="1">
          <mxGeometry x="159" y="275" width="60" height="30" as="geometry" />
        </mxCell>
        <mxCell id="qn-sbQdbIVTzuq3vQn2q-19" value="&lt;font style=&quot;font-size: 18px;&quot; face=&quot;Times New Roman&quot;&gt;&lt;b&gt;P2&lt;/b&gt;&lt;/font&gt;" style="text;html=1;strokeColor=none;fillColor=none;align=center;verticalAlign=middle;whiteSpace=wrap;rounded=0;fontColor=#000000;" parent="1" vertex="1">
          <mxGeometry x="159" y="325" width="60" height="30" as="geometry" />
        </mxCell>
        <mxCell id="qn-sbQdbIVTzuq3vQn2q-20" value="&lt;font style=&quot;font-size: 18px;&quot; face=&quot;Times New Roman&quot;&gt;&lt;b&gt;P3&lt;/b&gt;&lt;/font&gt;" style="text;html=1;strokeColor=none;fillColor=none;align=center;verticalAlign=middle;whiteSpace=wrap;rounded=0;fontColor=#000000;" parent="1" vertex="1">
          <mxGeometry x="159" y="375" width="60" height="30" as="geometry" />
        </mxCell>
        <mxCell id="qn-sbQdbIVTzuq3vQn2q-21" value="" style="html=1;shadow=0;dashed=0;align=center;verticalAlign=middle;shape=mxgraph.arrows2.arrow;dy=0.6;dx=40;notch=15;fillColor=#023047;" parent="1" vertex="1">
          <mxGeometry x="332" y="281" width="160" height="62" as="geometry" />
        </mxCell>
        <mxCell id="qn-sbQdbIVTzuq3vQn2q-22" value="&lt;font style=&quot;font-size: 20px;&quot;&gt;&lt;b style=&quot;&quot;&gt;&lt;i style=&quot;&quot;&gt;Reduce&lt;br&gt;&lt;/i&gt;&lt;/b&gt;&lt;/font&gt;" style="text;html=1;strokeColor=none;fillColor=none;align=center;verticalAlign=middle;whiteSpace=wrap;rounded=0;" parent="1" vertex="1">
          <mxGeometry x="335" y="251" width="134" height="30" as="geometry" />
        </mxCell>
        <mxCell id="qn-sbQdbIVTzuq3vQn2q-39" value="&lt;font face=&quot;Times New Roman&quot; style=&quot;font-size: 18px;&quot;&gt;&lt;b style=&quot;&quot;&gt;f(ABCD)&lt;/b&gt;&lt;/font&gt;" style="rounded=0;whiteSpace=wrap;html=1;fillColor=#FFB703;" parent="1" vertex="1">
          <mxGeometry x="554" y="219" width="97" height="38" as="geometry" />
        </mxCell>
        <mxCell id="qn-sbQdbIVTzuq3vQn2q-40" value="" style="rounded=0;whiteSpace=wrap;html=1;fillColor=#90C9E6;" parent="1" vertex="1">
          <mxGeometry x="554" y="271" width="97" height="38" as="geometry" />
        </mxCell>
        <mxCell id="qn-sbQdbIVTzuq3vQn2q-41" value="" style="rounded=0;whiteSpace=wrap;html=1;fillColor=#FB8402;" parent="1" vertex="1">
          <mxGeometry x="554" y="321" width="97" height="38" as="geometry" />
        </mxCell>
        <mxCell id="qn-sbQdbIVTzuq3vQn2q-42" value="" style="rounded=0;whiteSpace=wrap;html=1;fillColor=#219EBC;" parent="1" vertex="1">
          <mxGeometry x="554" y="371" width="97" height="38" as="geometry" />
        </mxCell>
      </root>
    </mxGraphModel>
  </diagram>
</mxfile>
